<?xml version="1.0" encoding="UTF-8"?>
<svg version="1.1" xmlns="http://www.w3.org/2000/svg" width="500" height="500">
<path d="M0 0 C1.86785156 0.55300781 1.86785156 0.55300781 3.7734375 1.1171875 C32.19261985 10.05597587 62.82633571 25.51226124 82 49 C82.99 49.66 83.98 50.32 85 51 C85 51.66 85 52.32 85 53 C85.59006836 53.26466064 86.18013672 53.52932129 86.78808594 53.80200195 C112.77609512 67.87740604 128.41281894 113.04573163 136.1953125 139.13085938 C138.30801127 146.66375865 139.81007395 154.27196528 141 162 C141.11569336 162.73847168 141.23138672 163.47694336 141.35058594 164.23779297 C146.91043819 201.33372113 141.1420604 238.9090924 126.23486328 273.13232422 C124.93787491 276.14427071 123.71511247 279.18154414 122.48828125 282.22265625 C120.45314066 287.11214593 118.13290979 291.56453102 115.25 296 C114.8180835 296.67587158 114.38616699 297.35174316 113.94116211 298.0480957 C84.73671374 343.20262481 40.52394125 376.42160293 -12.18261719 388.25537109 C-64.10225239 399.24482125 -119.82105683 391.70537546 -165 363 C-168.92999806 360.33131536 -172.62154694 357.38805512 -176.28955078 354.37158203 C-178.22059815 352.82310585 -180.1953362 351.34535555 -182.18359375 349.87109375 C-194.83520785 340.47602636 -205.36742076 330.47508847 -214.72314453 317.72558594 C-216.02252684 315.96955646 -217.34982075 314.23782703 -218.68359375 312.5078125 C-230.32010963 297.26581982 -239.2161843 280.91972757 -246 263 C-246.28214355 262.26990723 -246.56428711 261.53981445 -246.85498047 260.78759766 C-265.0029707 213.16650132 -261.47189386 154.93419088 -240.90771484 108.73339844 C-233.41922851 92.60794637 -223.63887418 78.16929397 -212.27197266 64.55273438 C-210.56270461 62.46618067 -208.97386518 60.29676066 -207.375 58.125 C-204.20340694 54.02644375 -200.55005012 50.68933985 -196.640625 47.30078125 C-194.91018424 45.79304514 -193.21032512 44.24930588 -191.546875 42.66796875 C-162.25398854 14.8576977 -122.87949297 -1.9868934 -83 -7 C-81.89893921 -7.14139404 -81.89893921 -7.14139404 -80.77563477 -7.28564453 C-53.66745049 -10.39819973 -26.05675679 -7.89051119 0 0 Z " fill="#8EF2AC" transform="translate(294,31)"/>
<path d="M0 0 C2.41979832 2.26831177 4.70658486 4.60233872 7 7 C7.66 7.33 8.32 7.66 9 8 C9 8.66 9 9.32 9 10 C9.59554688 10.26167969 10.19109375 10.52335937 10.8046875 10.79296875 C14.74351697 12.9586241 17.19536466 16.55185368 20 20 C20.76699219 20.94230469 21.53398437 21.88460937 22.32421875 22.85546875 C27.14318497 28.89638711 31.51422583 35.14330685 35.625 41.6875 C36.28205933 42.73067383 36.28205933 42.73067383 36.95239258 43.79492188 C40 48.7418341 40 48.7418341 40 51 C39.20005615 51.35715088 38.4001123 51.71430176 37.57592773 52.08227539 C34.5281205 53.44375358 31.48082477 54.80636512 28.43383789 56.16967773 C27.12999589 56.75279504 25.82596752 57.33549583 24.52172852 57.91772461 C9.28702826 64.71945588 -5.78992502 71.83932031 -20.85006714 79.01733398 C-33.39774816 84.99511227 -45.94864009 90.95910987 -58.60180664 96.71118164 C-65.05905725 99.64762239 -71.50000371 102.6176336 -77.93359375 105.60546875 C-78.82789597 106.0206778 -79.72219818 106.43588684 -80.64360046 106.86367798 C-84.26152433 108.54374982 -87.8793116 110.22410762 -91.49581909 111.90722656 C-101.2767593 116.45895702 -111.07018461 120.96973245 -120.95407104 125.29447937 C-125.58752601 127.33145056 -130.11294805 129.51826788 -134.625 131.8125 C-143.11457285 136.11715245 -151.75901962 140.05406864 -160.421875 143.99609375 C-165.02551353 146.09226895 -169.61843004 148.21041623 -174.203125 150.34765625 C-174.80616455 150.62875244 -175.4092041 150.90984863 -176.03051758 151.19946289 C-177.24750355 151.76689094 -178.46446323 152.33437539 -179.68139648 152.9019165 C-187.66788736 156.6263188 -195.6511774 160.33805582 -203.75 163.8125 C-208.75670716 165.96194912 -213.64545456 168.27986424 -218.5 170.75 C-227.02176536 175.0849298 -235.70973021 179.03126669 -244.41015625 182.9921875 C-251.51937689 186.22962383 -258.60462456 189.51798098 -265.6875 192.8125 C-269.02339228 194.3639509 -272.3593065 195.91532635 -275.69677734 197.46337891 C-278.01780082 198.54309227 -280.33555801 199.62844438 -282.65087891 200.72021484 C-283.82440918 201.27016113 -284.99793945 201.82010742 -286.20703125 202.38671875 C-287.27026611 202.88776123 -288.33350098 203.38880371 -289.42895508 203.9050293 C-292 205 -292 205 -294 205 C-309.97702852 162.92715823 -310.03522439 118.49578515 -295 76 C-294.72816895 75.22865723 -294.45633789 74.45731445 -294.17626953 73.66259766 C-277.64092879 27.92460983 -240.43283078 -8.62804987 -196.97021484 -29.0859375 C-131.82412272 -59.30984938 -54.12786967 -46.00605227 0 0 Z " fill="#8EF2AC" transform="translate(357,83)"/>
<path d="M0 0 C1.86785156 0.55300781 1.86785156 0.55300781 3.7734375 1.1171875 C32.19261985 10.05597587 62.82633571 25.51226124 82 49 C82.99 49.66 83.98 50.32 85 51 C85 51.66 85 52.32 85 53 C85.59006836 53.26466064 86.18013672 53.52932129 86.78808594 53.80200195 C112.77609512 67.87740604 128.41281894 113.04573163 136.1953125 139.13085938 C138.30801127 146.66375865 139.81007395 154.27196528 141 162 C141.11569336 162.73847168 141.23138672 163.47694336 141.35058594 164.23779297 C146.91043819 201.33372113 141.1420604 238.9090924 126.23486328 273.13232422 C124.93787491 276.14427071 123.71511247 279.18154414 122.48828125 282.22265625 C120.45314066 287.11214593 118.13290979 291.56453102 115.25 296 C114.8180835 296.67587158 114.38616699 297.35174316 113.94116211 298.0480957 C84.73671374 343.20262481 40.52394125 376.42160293 -12.18261719 388.25537109 C-64.10225239 399.24482125 -119.82105683 391.70537546 -165 363 C-168.92999806 360.33131536 -172.62154694 357.38805512 -176.28955078 354.37158203 C-178.22059815 352.82310585 -180.1953362 351.34535555 -182.18359375 349.87109375 C-194.83520785 340.47602636 -205.36742076 330.47508847 -214.72314453 317.72558594 C-216.02252684 315.96955646 -217.34982075 314.23782703 -218.68359375 312.5078125 C-230.32010963 297.26581982 -239.2161843 280.91972757 -246 263 C-246.28214355 262.26990723 -246.56428711 261.53981445 -246.85498047 260.78759766 C-265.0029707 213.16650132 -261.47189386 154.93419088 -240.90771484 108.73339844 C-233.41922851 92.60794637 -223.63887418 78.16929397 -212.27197266 64.55273438 C-210.56270461 62.46618067 -208.97386518 60.29676066 -207.375 58.125 C-204.20340694 54.02644375 -200.55005012 50.68933985 -196.640625 47.30078125 C-194.91018424 45.79304514 -193.21032512 44.24930588 -191.546875 42.66796875 C-162.25398854 14.8576977 -122.87949297 -1.9868934 -83 -7 C-81.89893921 -7.14139404 -81.89893921 -7.14139404 -80.77563477 -7.28564453 C-53.66745049 -10.39819973 -26.05675679 -7.89051119 0 0 Z M-146 29 C-147.04414063 29.56460938 -148.08828125 30.12921875 -149.1640625 30.7109375 C-180.42130173 48.27767089 -205.21207111 74.66537163 -222.02441406 106.17480469 C-222.88423499 107.78341861 -223.76476513 109.3809266 -224.6484375 110.9765625 C-232.9842111 126.63370339 -238.20542058 144.53965257 -241 162 C-241.18691406 163.01578125 -241.37382812 164.0315625 -241.56640625 165.078125 C-246.54681764 195.58749826 -242.51740731 228.36733936 -231 257 C-226.62923718 255.63071134 -222.56794016 253.94797812 -218.43359375 251.98046875 C-217.81037735 251.68558563 -217.18716095 251.39070251 -216.5450592 251.08688354 C-215.20535782 250.45297057 -213.8662998 249.81769642 -212.52783203 249.18118286 C-200.91568179 243.66110542 -189.25197705 238.27788249 -177.5 233.0625 C-169.53146323 229.52275525 -161.63129609 225.91835133 -153.86987305 221.94433594 C-141.66716968 215.72923434 -129.0813966 210.25653579 -116.57421875 204.6875 C-114.04933064 203.562833 -111.52456238 202.437898 -109 201.3125 C-108.3749054 201.0338913 -107.74981079 200.75528259 -107.10577393 200.4682312 C-99.59620256 197.11665545 -92.16509816 193.67877523 -84.84545898 189.93212891 C-78.52172929 186.71202462 -72.07206765 183.78407871 -65.61352539 180.84594727 C-58.72043257 177.70820083 -51.84159243 174.54181396 -44.97265625 171.3515625 C-43.64008537 170.73282005 -43.64008537 170.73282005 -42.28059387 170.10157776 C-38.6901428 168.43407948 -35.09986398 166.76621808 -31.51077271 165.09579468 C-21.01748162 160.21258042 -10.4968965 155.40529886 0.0925293 150.73388672 C8.47448776 147.03003746 16.74718236 143.09967965 24.98828125 139.09375 C38.88552603 132.34517999 52.86028245 125.87757338 67 119.65234375 C74.05423849 116.54527633 81.03196536 113.29514902 88 110 C90.8111258 108.68455007 93.62431307 107.37353505 96.4375 106.0625 C97.70706697 105.47012863 98.9766018 104.87768837 100.24609375 104.28515625 C101.15488281 103.86105469 102.06367188 103.43695313 103 103 C98.40254743 90.07743061 88.98719785 79.10177969 80 69 C78.80961647 67.56488692 77.62149748 66.12788622 76.4375 64.6875 C75.633125 63.800625 74.82875 62.91375 74 62 C73.34 62 72.68 62 72 62 C72 61.34 72 60.68 72 60 C70.62375656 58.52901313 70.62375656 58.52901313 68.75 57 C68.01394531 56.37738281 67.27789062 55.75476563 66.51953125 55.11328125 C65.68808594 54.41589844 64.85664063 53.71851563 64 53 C63.11699219 52.23042969 62.23398437 51.46085937 61.32421875 50.66796875 C4.20892451 1.59055083 -79.97059157 -7.11959293 -146 29 Z M105.2890625 130.04296875 C104.61711853 130.36292313 103.94517456 130.6828775 103.25286865 131.01252747 C101.80048203 131.70446402 100.34927037 132.39887104 98.89910889 133.09545898 C95.04810207 134.94473604 91.18836211 136.77555465 87.328125 138.60546875 C86.15284744 139.16305374 86.15284744 139.16305374 84.9538269 139.73190308 C77.47740806 143.26817896 69.93606552 146.64954169 62.375 150 C54.44760366 153.5207543 46.59040759 157.09894641 38.87158203 161.0559082 C31.22519489 164.95400681 23.38846593 168.44200125 15.578125 171.99609375 C10.97448647 174.09226895 6.38156996 176.21041623 1.796875 178.34765625 C1.19383545 178.62875244 0.5907959 178.90984863 -0.03051758 179.19946289 C-1.24750355 179.76689094 -2.46446323 180.33437539 -3.68139648 180.9019165 C-11.66788736 184.6263188 -19.6511774 188.33805582 -27.75 191.8125 C-32.75670716 193.96194912 -37.64545456 196.27986424 -42.5 198.75 C-51.02544645 203.08680233 -59.71703089 207.03490064 -68.421875 210.99609375 C-73.02551353 213.09226895 -77.61843004 215.21041623 -82.203125 217.34765625 C-82.80616455 217.62875244 -83.4092041 217.90984863 -84.03051758 218.19946289 C-85.24750355 218.76689094 -86.46446323 219.33437539 -87.68139648 219.9019165 C-95.66788736 223.6263188 -103.6511774 227.33805582 -111.75 230.8125 C-116.75672576 232.96195711 -121.64532128 235.28010796 -126.5 237.75 C-139.5869136 244.39974234 -153.01845397 250.34265802 -166.42578125 256.3125 C-168.95066996 257.43716565 -171.47543926 258.56209832 -174 259.6875 C-174.62210358 259.96477936 -175.24420715 260.24205872 -175.88516235 260.52774048 C-184.1830325 264.23122837 -192.37468797 268.06818978 -200.4609375 272.2109375 C-206.56637583 275.29735114 -212.78491126 278.14248793 -219 281 C-217.55462111 286.32725363 -215.07706094 290.24121444 -211.9375 294.6875 C-211.44507813 295.39229492 -210.95265625 296.09708984 -210.4453125 296.82324219 C-181.6286115 337.64690193 -139.51849358 365.11226793 -90.359375 374.45703125 C-83.59745704 375.5499459 -77.09022487 376.15797398 -70.25 376.16796875 C-69.43362061 376.17129715 -68.61724121 376.17462555 -67.77612305 376.17805481 C-66.05501869 376.18308926 -64.33390468 376.18546422 -62.61279297 376.18530273 C-60.03465801 376.18747085 -57.45696474 376.20561315 -54.87890625 376.22460938 C-41.56911532 376.2707279 -28.55386002 375.49457478 -15.625 372.0625 C-14.62835327 371.79928955 -14.62835327 371.79928955 -13.61157227 371.53076172 C-11.7380996 371.03144261 -9.86885998 370.5163156 -8 370 C-6.66388672 369.64615234 -6.66388672 369.64615234 -5.30078125 369.28515625 C18.38515052 362.66875547 41.57264365 350.21722171 60 334 C60.82757813 333.28199219 61.65515625 332.56398438 62.5078125 331.82421875 C73.55412509 322.07645388 83.28914966 311.85047276 92 300 C92.4213623 299.43361816 92.84272461 298.86723633 93.27685547 298.28369141 C115.3150648 268.29417187 126.18934514 230.60903601 126.18530273 193.67358398 C126.18747157 191.46643248 126.20563184 189.25979676 126.22460938 187.05273438 C126.2835478 172.81716643 124.67281538 159.25127599 121.0625 145.4375 C120.68448242 143.91672852 120.68448242 143.91672852 120.29882812 142.36523438 C118.93005775 136.99867433 117.35594835 132.01430201 115 127 C111.22373504 127 108.61076521 128.43104639 105.2890625 130.04296875 Z " fill="#221C68" transform="translate(294,31)"/>
<path d="M0 0 C4.17593623 4.62738879 5.37776653 7.49697414 5.26953125 13.6171875 C4.83014107 17.50165142 3.57545746 20.08651651 1 23 C-4.06774316 26.25710509 -9.78224804 28.01091364 -15.5 29.75 C-24.50213706 32.62350011 -32.72330676 36.4698502 -41 41 C-41.91136719 41.49242187 -42.82273437 41.98484375 -43.76171875 42.4921875 C-72.82436219 59.05929825 -93.44332452 87.17554362 -103.58129883 118.77099609 C-105.46933464 124.43571753 -107.84931881 127.97718912 -113.0078125 131.2890625 C-116.93539959 132.69067201 -120.90399957 132.52413276 -125 132 C-129.55338908 129.76469991 -131.73894738 127.4792838 -134 123 C-135.29696513 114.71840674 -133.37923249 107.57836983 -130.1875 100 C-129.78660156 99.01668701 -129.38570313 98.03337402 -128.97265625 97.02026367 C-122.77889774 82.23527763 -115.15627912 68.42542977 -105 56 C-103.94232422 54.64068359 -103.94232422 54.64068359 -102.86328125 53.25390625 C-82.70993453 27.74563078 -54.69949508 9.50941214 -23.875 -0.5625 C-23.11775635 -0.81427002 -22.3605127 -1.06604004 -21.58032227 -1.32543945 C-14.11227479 -3.61487177 -6.75550397 -4.55603756 0 0 Z " fill="#FDFEFD" transform="translate(215,74)"/>
<path d="M0 0 C1.6896617 5.06898509 -1.30247484 9.43132283 -3.3125 14.1875 C-3.99493774 15.80930176 -3.99493774 15.80930176 -4.69116211 17.46386719 C-8.63694008 26.59573825 -13.26454598 34.88762799 -19 43 C-19.73992187 44.05058594 -20.47984375 45.10117187 -21.2421875 46.18359375 C-50.21321608 85.82544602 -90.25403264 115.1361839 -138.29296875 126.6171875 C-140.93170572 126.99034222 -142.50981937 126.86770017 -145 126 C-143.41638672 125.5978125 -143.41638672 125.5978125 -141.80078125 125.1875 C-116.48779635 118.57088167 -92.18709165 108.52022561 -71 93 C-70.42088867 92.57638184 -69.84177734 92.15276367 -69.24511719 91.71630859 C-55.67455979 81.66502388 -43.31280068 70.39431483 -33 57 C-32.37351562 56.26265625 -31.74703125 55.5253125 -31.1015625 54.765625 C-17.39915946 38.54645405 -8.21402917 19.41974947 0 0 Z " fill="#EBEAF1" transform="translate(423,292)"/>
<path d="M0 0 C-3.80364795 3.57375714 -8.33096988 4.39713732 -13.25 5.625 C-14.07113281 5.8415625 -14.89226562 6.058125 -15.73828125 6.28125 C-20.81868548 7.58556931 -25.78304162 8.45907114 -31 9 C-28.26380077 6.26380077 -25.22026331 5.9482274 -21.5625 5.125 C-15.52078925 3.70810251 -9.80113366 1.97810416 -4.0390625 -0.36328125 C-2 -1 -2 -1 0 0 Z " fill="#DFDEE9" transform="translate(309,410)"/>
<path d="M0 0 C0.66 0.33 1.32 0.66 2 1 C-4.6 7.6 -11.2 14.2 -18 21 C-18.66 20.67 -19.32 20.34 -20 20 C-16.27755957 15.44001047 -12.45079695 11.52067741 -7.96875 7.7109375 C-5.16594984 5.27517069 -2.59235026 2.65715902 0 0 Z " fill="#423C7E" transform="translate(105,71)"/>
<path d="M0 0 C-1.6188996 1.03048037 -3.24532489 2.04914678 -4.875 3.0625 C-5.77992188 3.63097656 -6.68484375 4.19945312 -7.6171875 4.78515625 C-8.40351563 5.18605469 -9.18984375 5.58695312 -10 6 C-10.66 5.67 -11.32 5.34 -12 5 C-8.77464852 1.23708994 -4.90542108 -1.63514036 0 0 Z " fill="#F1F1F5" transform="translate(340,396)"/>
<path d="M0 0 C1 4 1 4 0.00390625 5.921875 C-0.47175781 6.52515625 -0.94742187 7.1284375 -1.4375 7.75 C-1.91058594 8.36359375 -2.38367188 8.9771875 -2.87109375 9.609375 C-3.24363281 10.06828125 -3.61617188 10.5271875 -4 11 C-4.99 10.67 -5.98 10.34 -7 10 C-3.535 5.05 -3.535 5.05 0 0 Z " fill="#E1E0EA" transform="translate(403,331)"/>
<path d="M0 0 C0.66 0.33 1.32 0.66 2 1 C-0.17424117 3.50037734 -1.73045798 4.43628586 -5 5 C-5.33 4.34 -5.66 3.68 -6 3 C-4.03533587 1.93224776 -2.03144641 0.93446535 0 0 Z " fill="#DFDEE9" transform="translate(327,400)"/>
</svg>
