<?xml version="1.0" encoding="UTF-8"?>
<svg version="1.1" xmlns="http://www.w3.org/2000/svg" width="500" height="500">
<path d="M0 0 C1.68977169 1.43149765 3.35450592 2.89281812 5 4.375 C5.76594482 5.05925049 5.76594482 5.05925049 6.54736328 5.75732422 C22.66493852 20.35265743 33.50243878 40.00738054 35.20336914 62.00512695 C35.30237446 64.71549074 35.32905465 67.41291631 35.3125 70.125 C35.30758545 71.08728516 35.3026709 72.04957031 35.29760742 73.04101562 C35.02865342 89.49272484 30.38573292 105.75281406 21 119.375 C20.53464844 120.06335938 20.06929688 120.75171875 19.58984375 121.4609375 C12.28224307 131.51589701 2.65658199 140.45503749 -6.80859375 148.46875 C-9.9653396 151.214725 -13.00863158 154.07804948 -16.0625 156.9375 C-16.70614502 157.53997559 -17.34979004 158.14245117 -18.01293945 158.76318359 C-19.3419651 160.00811029 -20.67065514 161.25339536 -21.99902344 162.49902344 C-31.61492188 171.51422154 -41.26827589 180.48493852 -51 189.375 C-62.05125332 199.48697017 -73.07990057 209.62129996 -84 219.875 C-92.65374442 227.99964039 -101.31836276 236.11019207 -110.1875 244 C-113.56299789 247.01617069 -116.77181444 250.13962954 -119.9375 253.375 C-124.13769219 257.63434983 -128.59914085 261.35752993 -133.26953125 265.0859375 C-136.96107287 268.1807063 -140.28502875 271.57604133 -143.6484375 275.01953125 C-146.35501257 277.7306023 -149.18683726 280.23764576 -152.11328125 282.70703125 C-154.51368201 284.82912468 -156.73624419 287.1078855 -159 289.375 C-160.92834272 291.17833291 -162.86228224 292.97081536 -164.8125 294.75 C-165.34383545 295.23621826 -165.8751709 295.72243652 -166.42260742 296.22338867 C-169.1890448 298.74798845 -171.97532291 301.24230132 -174.8125 303.6875 C-179.54873566 307.78424392 -184.08293674 312.10167283 -188.6340332 316.40161133 C-191.98556981 319.55443506 -195.39970779 322.50520187 -199 325.375 C-199.598125 326.138125 -200.19625 326.90125 -200.8125 327.6875 C-203.82189512 331.38475686 -207.35828089 334.31647434 -211 337.375 C-211.95390625 338.18195313 -212.9078125 338.98890625 -213.890625 339.8203125 C-221.37307552 346.0326012 -229.11548106 351.29197809 -238 355.25 C-238.60312012 355.52376465 -239.20624023 355.7975293 -239.82763672 356.07958984 C-250.48866963 360.5942252 -261.38399856 361.91164241 -272.875 361.8125 C-274.71481445 361.80222778 -274.71481445 361.80222778 -276.59179688 361.79174805 C-285.66644743 361.63107618 -293.47710721 360.65797125 -302 357.375 C-303.05832031 356.98957031 -304.11664063 356.60414063 -305.20703125 356.20703125 C-311.76531833 353.65796118 -318.35808931 350.63139723 -324 346.375 C-324 345.715 -324 345.055 -324 344.375 C-324.69609375 344.16359375 -325.3921875 343.9521875 -326.109375 343.734375 C-329.81238812 341.99295802 -332.40963284 339.49909573 -335.25 336.625 C-335.81920166 336.04935303 -336.38840332 335.47370605 -336.97485352 334.88061523 C-353.56309104 317.58162025 -361.59084865 294.51586666 -361.21484375 270.703125 C-360.40528419 248.35726975 -350.84325066 227.89225785 -335 212.375 C-332.4110167 209.98799412 -329.79174097 207.64576726 -327.140625 205.328125 C-325.36221371 203.70548696 -323.8608995 202.13213937 -322.375 200.25 C-319.96389604 197.3312952 -317.43579945 195.06448665 -314.5625 192.62109375 C-311.16782694 189.64558001 -307.90587726 186.53735209 -304.625 183.4375 C-300.39946608 179.45184582 -296.17057889 175.60936753 -291.5625 172.0625 C-287.48803611 168.9106833 -284.24495196 165.41303793 -280.90234375 161.5078125 C-278.59700878 158.92318643 -276.09515678 156.74288338 -273.453125 154.51171875 C-270.11008842 151.59987001 -266.90996246 148.54399379 -263.6875 145.5 C-259.4533602 141.50936867 -255.20952405 137.65312723 -250.625 134.0625 C-244.70257479 129.34764575 -239.47235551 123.98211605 -234.18798828 118.5769043 C-230.22851833 114.53869224 -226.18354696 110.70154755 -221.89526367 107.01416016 C-219.03169953 104.5375442 -216.26897118 101.95626606 -213.5 99.375 C-209.96234885 96.08909372 -206.41494789 92.83202529 -202.75 89.6875 C-199.13382566 86.56513098 -195.79448979 83.20932024 -192.46875 79.78125 C-189.76937062 77.15020934 -186.95162903 74.69641481 -184.10546875 72.2265625 C-180.74560417 69.2718764 -177.50088845 66.19848662 -174.25 63.125 C-168.55893096 57.76625616 -162.83096552 52.45470121 -157.05859375 47.18359375 C-153.51537135 43.93943661 -150.00836194 40.65675903 -146.5 37.375 C-141.01661487 32.24685885 -135.50572302 27.15150452 -129.9609375 22.08984375 C-127.891963 20.19846659 -125.83682464 18.29322563 -123.7890625 16.37890625 C-121.06838255 13.83693048 -118.33089505 11.31461569 -115.57617188 8.80957031 C-114.0817304 7.44938783 -112.59531023 6.08040754 -111.109375 4.7109375 C-80.21579961 -22.55306483 -33.10420344 -25.13173977 0 0 Z " fill="#8EF2AC" transform="translate(408,73.625)"/>
<path d="M0 0 C4.91903658 3.9770934 9.10687391 8.22988785 13.2890625 12.96875 C16.57557003 16.67454459 19.97940466 20.26943794 23.375 23.875 C28.73392067 29.57296664 34.05240949 35.30293347 39.328125 41.078125 C42.18877655 44.20643985 45.0610975 47.3236772 47.9375 50.4375 C48.68616333 51.24803833 48.68616333 51.24803833 49.44995117 52.07495117 C50.46120612 53.16964892 51.47251812 54.26429396 52.48388672 55.35888672 C54.49046659 57.53090442 56.49613692 59.70376073 58.50170898 61.87670898 C59.50244158 62.96093108 60.50325569 64.04507794 61.50415039 65.12915039 C63.98061326 67.81148255 66.45615272 70.49465476 68.9296875 73.1796875 C74.32715687 79.03628702 79.74575335 84.87199898 85.1875 90.6875 C90.52876795 96.39700504 95.80379045 102.15770091 101 108 C99.51556158 111.46108537 97.55369767 113.68513626 94.875 116.3125 C94.15054688 117.03050781 93.42609375 117.74851562 92.6796875 118.48828125 C90.54586765 120.48834854 88.38614121 122.42209999 86.1796875 124.33984375 C82.10864417 127.87998494 78.16988874 131.54407368 74.25 135.25 C68.50917899 140.65489 62.73486895 146.01719522 56.9140625 151.3359375 C49.04429373 158.53055184 41.22667214 165.7807787 33.4375 173.0625 C27.973862 178.16982891 22.4808744 183.24268587 16.9609375 188.2890625 C14.34945334 190.67725342 11.74725088 193.07532619 9.1484375 195.47729492 C8.05315522 196.48903598 6.95680702 197.49962437 5.859375 198.5090332 C3.18470893 200.97054182 0.52608635 203.44533262 -2.1015625 205.95703125 C-20.64036211 223.56322973 -39.99779284 229.89400414 -65.1640625 229.43359375 C-80.12744587 228.77107705 -92.12125042 222.73765741 -104 214 C-104.68191406 213.52046875 -105.36382812 213.0409375 -106.06640625 212.546875 C-119.44079559 202.24456117 -128.73500811 184.12410195 -131.55078125 167.80859375 C-134.02325214 146.84634055 -130.47589468 127.11463798 -117.4375 110 C-110.0254161 101.25865348 -101.67272531 93.26437993 -93.01757812 85.77026367 C-89.68451065 82.84576316 -86.47178009 79.7959231 -83.25 76.75 C-77.50917899 71.34511 -71.73486895 65.98280478 -65.9140625 60.6640625 C-58.04429373 53.46944816 -50.22667214 46.2192213 -42.4375 38.9375 C-36.97654877 33.83268265 -31.48660832 28.76195384 -25.96875 23.71875 C-22.75898764 20.78361971 -19.56749274 17.82888461 -16.375 14.875 C-10.9601156 9.86754819 -5.49876685 4.91537624 0 0 Z " fill="#FEFDFE" transform="translate(192,192)"/>
<path d="M0 0 C1.68977169 1.43149765 3.35450592 2.89281812 5 4.375 C5.76594482 5.05925049 5.76594482 5.05925049 6.54736328 5.75732422 C22.66493852 20.35265743 33.50243878 40.00738054 35.20336914 62.00512695 C35.30237446 64.71549074 35.32905465 67.41291631 35.3125 70.125 C35.30758545 71.08728516 35.3026709 72.04957031 35.29760742 73.04101562 C35.02865342 89.49272484 30.38573292 105.75281406 21 119.375 C20.53464844 120.06335938 20.06929688 120.75171875 19.58984375 121.4609375 C12.28224307 131.51589701 2.65658199 140.45503749 -6.80859375 148.46875 C-9.9653396 151.214725 -13.00863158 154.07804948 -16.0625 156.9375 C-16.70614502 157.53997559 -17.34979004 158.14245117 -18.01293945 158.76318359 C-19.3419651 160.00811029 -20.67065514 161.25339536 -21.99902344 162.49902344 C-31.61492188 171.51422154 -41.26827589 180.48493852 -51 189.375 C-62.05125332 199.48697017 -73.07990057 209.62129996 -84 219.875 C-92.65374442 227.99964039 -101.31836276 236.11019207 -110.1875 244 C-113.56299789 247.01617069 -116.77181444 250.13962954 -119.9375 253.375 C-124.13769219 257.63434983 -128.59914085 261.35752993 -133.26953125 265.0859375 C-136.96107287 268.1807063 -140.28502875 271.57604133 -143.6484375 275.01953125 C-146.35501257 277.7306023 -149.18683726 280.23764576 -152.11328125 282.70703125 C-154.51368201 284.82912468 -156.73624419 287.1078855 -159 289.375 C-160.92834272 291.17833291 -162.86228224 292.97081536 -164.8125 294.75 C-165.34383545 295.23621826 -165.8751709 295.72243652 -166.42260742 296.22338867 C-169.1890448 298.74798845 -171.97532291 301.24230132 -174.8125 303.6875 C-179.54873566 307.78424392 -184.08293674 312.10167283 -188.6340332 316.40161133 C-191.98556981 319.55443506 -195.39970779 322.50520187 -199 325.375 C-199.598125 326.138125 -200.19625 326.90125 -200.8125 327.6875 C-203.82189512 331.38475686 -207.35828089 334.31647434 -211 337.375 C-211.95390625 338.18195313 -212.9078125 338.98890625 -213.890625 339.8203125 C-221.37307552 346.0326012 -229.11548106 351.29197809 -238 355.25 C-238.60312012 355.52376465 -239.20624023 355.7975293 -239.82763672 356.07958984 C-250.48866963 360.5942252 -261.38399856 361.91164241 -272.875 361.8125 C-274.71481445 361.80222778 -274.71481445 361.80222778 -276.59179688 361.79174805 C-285.66644743 361.63107618 -293.47710721 360.65797125 -302 357.375 C-303.05832031 356.98957031 -304.11664063 356.60414063 -305.20703125 356.20703125 C-311.76531833 353.65796118 -318.35808931 350.63139723 -324 346.375 C-324 345.715 -324 345.055 -324 344.375 C-324.69609375 344.16359375 -325.3921875 343.9521875 -326.109375 343.734375 C-329.81238812 341.99295802 -332.40963284 339.49909573 -335.25 336.625 C-335.81920166 336.04935303 -336.38840332 335.47370605 -336.97485352 334.88061523 C-353.56309104 317.58162025 -361.59084865 294.51586666 -361.21484375 270.703125 C-360.40528419 248.35726975 -350.84325066 227.89225785 -335 212.375 C-332.4110167 209.98799412 -329.79174097 207.64576726 -327.140625 205.328125 C-325.36221371 203.70548696 -323.8608995 202.13213937 -322.375 200.25 C-319.96389604 197.3312952 -317.43579945 195.06448665 -314.5625 192.62109375 C-311.16782694 189.64558001 -307.90587726 186.53735209 -304.625 183.4375 C-300.39946608 179.45184582 -296.17057889 175.60936753 -291.5625 172.0625 C-287.48803611 168.9106833 -284.24495196 165.41303793 -280.90234375 161.5078125 C-278.59700878 158.92318643 -276.09515678 156.74288338 -273.453125 154.51171875 C-270.11008842 151.59987001 -266.90996246 148.54399379 -263.6875 145.5 C-259.4533602 141.50936867 -255.20952405 137.65312723 -250.625 134.0625 C-244.70257479 129.34764575 -239.47235551 123.98211605 -234.18798828 118.5769043 C-230.22851833 114.53869224 -226.18354696 110.70154755 -221.89526367 107.01416016 C-219.03169953 104.5375442 -216.26897118 101.95626606 -213.5 99.375 C-209.96234885 96.08909372 -206.41494789 92.83202529 -202.75 89.6875 C-199.13382566 86.56513098 -195.79448979 83.20932024 -192.46875 79.78125 C-189.76937062 77.15020934 -186.95162903 74.69641481 -184.10546875 72.2265625 C-180.74560417 69.2718764 -177.50088845 66.19848662 -174.25 63.125 C-168.55893096 57.76625616 -162.83096552 52.45470121 -157.05859375 47.18359375 C-153.51537135 43.93943661 -150.00836194 40.65675903 -146.5 37.375 C-141.01661487 32.24685885 -135.50572302 27.15150452 -129.9609375 22.08984375 C-127.891963 20.19846659 -125.83682464 18.29322563 -123.7890625 16.37890625 C-121.06838255 13.83693048 -118.33089505 11.31461569 -115.57617188 8.80957031 C-114.0817304 7.44938783 -112.59531023 6.08040754 -111.109375 4.7109375 C-80.21579961 -22.55306483 -33.10420344 -25.13173977 0 0 Z M-111.40625 21.85791016 C-113.90311903 24.23467856 -116.45198887 26.55335742 -119 28.875 C-119.99382194 29.78479333 -120.98731002 30.69495148 -121.98046875 31.60546875 C-122.47595215 32.05970215 -122.97143555 32.51393555 -123.48193359 32.98193359 C-130.87452275 39.76580522 -138.23301442 46.58551749 -145.5625 53.4375 C-151.02748136 58.54608466 -156.52199152 63.62000697 -162.04296875 68.66796875 C-165.18333181 71.53990679 -168.31135251 74.42510363 -171.4375 77.3125 C-171.97632813 77.81007813 -172.51515625 78.30765625 -173.0703125 78.8203125 C-175.82250773 81.36231621 -178.57365388 83.90545112 -181.32421875 86.44921875 C-188.18544908 92.79206747 -195.07476361 99.10204039 -202 105.375 C-200.62076149 108.4518608 -199.02099102 110.63395322 -196.69140625 113.0625 C-196.03237305 113.75504883 -195.37333984 114.44759766 -194.69433594 115.16113281 C-193.99083008 115.89170898 -193.28732422 116.62228516 -192.5625 117.375 C-191.09965874 118.9108855 -189.63742103 120.44734606 -188.17578125 121.984375 C-187.10191162 123.11069336 -187.10191162 123.11069336 -186.00634766 124.25976562 C-182.49948202 127.95695276 -179.0718915 131.72448211 -175.63671875 135.48828125 C-172.78899423 138.60601225 -169.92789061 141.7110167 -167.0625 144.8125 C-166.56186035 145.35438965 -166.0612207 145.8962793 -165.54541016 146.45458984 C-164.53274156 147.55064318 -163.52004622 148.64667179 -162.50732422 149.74267578 C-161.02589866 151.34695361 -159.54591008 152.95254366 -158.06640625 154.55859375 C-152.71047999 160.37079858 -147.33522536 166.16407652 -141.9375 171.9375 C-136.8314028 177.39977183 -131.75963411 182.8912593 -126.71484375 188.41015625 C-123.80077735 191.59678421 -120.8692353 194.76713509 -117.9375 197.9375 C-112.59196624 203.72023758 -107.28677191 209.53849738 -102 215.375 C-98.28731906 213.83372649 -96.01884302 211.56656766 -93.25 208.6875 C-89.67764092 204.98261793 -85.96594775 201.5626692 -82.07910156 198.19799805 C-78.7245823 195.25668812 -75.49154655 192.18961062 -72.25 189.125 C-66.50917899 183.72011 -60.73486895 178.35780478 -54.9140625 173.0390625 C-47.04429373 165.84444816 -39.22667214 158.5942213 -31.4375 151.3125 C-26.93552301 147.10411774 -22.42103258 142.91076275 -17.875 138.75 C-16.91722656 137.87085938 -15.95945312 136.99171875 -14.97265625 136.0859375 C-12.89007223 134.17951321 -10.79078468 132.29323422 -8.68359375 130.4140625 C2.82462002 120.09227967 11.31877256 109.8321689 17 95.375 C17.65355469 93.74304688 17.65355469 93.74304688 18.3203125 92.078125 C24.28440258 74.64463092 22.2948292 54.60967206 14.3125 38.25 C10.84004959 31.47956589 6.84950044 25.25588704 2 19.375 C1.48308594 18.74464844 0.96617187 18.11429688 0.43359375 17.46484375 C-11.76714427 4.0409741 -31.37603889 -3.93151847 -49.17578125 -4.91015625 C-74.50679414 -5.71449778 -93.56074149 4.75775192 -111.40625 21.85791016 Z M-219.17578125 121.26953125 C-219.83280029 121.88981201 -220.48981934 122.51009277 -221.16674805 123.14916992 C-222.22889526 124.15814331 -222.22889526 124.15814331 -223.3125 125.1875 C-224.78336345 126.57604083 -226.25472126 127.96405817 -227.7265625 129.3515625 C-228.45520508 130.03895508 -229.18384766 130.72634766 -229.93457031 131.43457031 C-233.61628031 134.89346288 -237.3484696 138.29603439 -241.078125 141.703125 C-245.85759587 146.07365719 -250.61096197 150.4724101 -255.36767578 154.86767578 C-256.97195361 156.34910134 -258.57754366 157.82908992 -260.18359375 159.30859375 C-265.99579858 164.66452001 -271.78907652 170.03977464 -277.5625 175.4375 C-283.02745856 180.54610874 -288.52199183 185.62000725 -294.04296875 190.66796875 C-297.72886181 194.03880718 -301.39846631 197.42723452 -305.06591797 200.81811523 C-307.83659114 203.37964192 -310.61110937 205.93670088 -313.39453125 208.484375 C-316.12477628 210.98462978 -318.84052828 213.49978444 -321.546875 216.02587891 C-322.85476207 217.24015712 -324.17655577 218.4394153 -325.5 219.63671875 C-338.39670849 231.74977308 -347.58825863 249.26898403 -348.30078125 267.13671875 C-348.32025204 268.77853503 -348.32373925 270.42060674 -348.3125 272.0625 C-348.30686035 272.93535645 -348.3012207 273.80821289 -348.29541016 274.70751953 C-347.96683728 292.40165665 -342.0717736 307.62529742 -331 321.375 C-330.53078125 322.00792969 -330.0615625 322.64085937 -329.578125 323.29296875 C-322.36257357 332.56707456 -311.6498082 338.82462741 -301 343.375 C-300.11054688 343.78878906 -299.22109375 344.20257813 -298.3046875 344.62890625 C-290.46640526 347.69373868 -282.77512237 347.75940492 -274.4375 347.8125 C-273.30175537 347.82265137 -272.16601074 347.83280273 -270.99584961 347.84326172 C-260.18169398 347.73217078 -250.40681041 345.66660016 -240.8125 340.625 C-240.12744385 340.27066895 -239.4423877 339.91633789 -238.73657227 339.55126953 C-227.95115017 333.8340357 -219.64192269 325.42500967 -210.83837891 317.10449219 C-208.20613692 314.62815723 -205.54275008 312.18807623 -202.875 309.75 C-197.11031269 304.47920826 -191.36924142 299.18331064 -185.63232422 293.88232422 C-184.02804639 292.40089866 -182.42245634 290.92091008 -180.81640625 289.44140625 C-175.00420142 284.08547999 -169.21092348 278.71022536 -163.4375 273.3125 C-157.97254144 268.20389126 -152.47800817 263.12999275 -146.95703125 258.08203125 C-142.18316171 253.71621199 -137.43633599 249.3210312 -132.68505859 244.93066406 C-130.92292333 243.303842 -129.1589298 241.67905442 -127.39453125 240.0546875 C-126.80534912 239.51191162 -126.21616699 238.96913574 -125.60913086 238.40991211 C-124.4814893 237.37117372 -123.35341995 236.33289947 -122.22485352 235.29516602 C-119.76982321 233.03253499 -117.33282845 230.7641381 -115 228.375 C-116.30354203 225.52047178 -117.70947056 223.39365468 -119.87109375 221.125 C-120.72380859 220.22201172 -120.72380859 220.22201172 -121.59375 219.30078125 C-122.2021875 218.66527344 -122.810625 218.02976562 -123.4375 217.375 C-124.71791192 216.02127206 -125.99785496 214.66710048 -127.27734375 213.3125 C-128.22843018 212.30896484 -128.22843018 212.30896484 -129.19873047 211.28515625 C-131.66118358 208.67384788 -134.08183703 206.02741124 -136.5 203.375 C-140.63791184 198.84763764 -144.81024595 194.35440488 -149 189.875 C-154.12996344 184.38961826 -159.2251005 178.87478027 -164.29296875 173.33203125 C-167.16490659 170.19166841 -170.05006534 167.06361186 -172.9375 163.9375 C-173.68604248 163.12708252 -173.68604248 163.12708252 -174.44970703 162.30029297 C-175.46104672 161.20551694 -176.47244008 160.1107905 -177.48388672 159.01611328 C-179.99014104 156.30322414 -182.49500446 153.58905141 -185 150.875 C-185.99999324 149.79166043 -186.99999324 148.70832709 -188 147.625 C-194 141.125 -194 141.125 -195.50268555 139.49682617 C-196.49338162 138.42374709 -197.48442453 137.35098809 -198.47583008 136.27856445 C-201.12125089 133.4159985 -203.75878836 130.54660716 -206.38671875 127.66796875 C-207.21526367 126.76304687 -207.21526367 126.76304687 -208.06054688 125.83984375 C-209.12784913 124.6738833 -210.19302983 123.5059765 -211.25585938 122.3359375 C-212.48368194 120.99679679 -213.73907658 119.68302073 -215 118.375 C-216.81254021 118.375 -217.92103739 120.07935338 -219.17578125 121.26953125 Z " fill="#1F1967" transform="translate(408,73.625)"/>
<path d="M0 0 C0.86625 0.37898438 1.7325 0.75796875 2.625 1.1484375 C12.68822506 6.09428391 21.27998825 14.07198438 28 23 C29.08129241 26.4601357 28.64358825 29.54653755 27.18359375 32.84375 C25.49987391 35.33119673 23.77836136 36.81702174 20.83984375 37.5078125 C16.97328426 37.70146323 14.61182951 37.36153562 11.25 35.375 C9 33 9 33 6.75 30.125 C1.2210314 23.27878496 -7.28943013 18.6762517 -15.96875 17.6484375 C-30.85883064 16.97483861 -42.09605632 24.54823157 -52.72460938 34.22021484 C-54.23911635 35.61969008 -55.73971472 37.03271657 -57.23828125 38.44921875 C-64.94864061 45.57066806 -64.94864061 45.57066806 -69 45.5625 C-72.27399217 45.37682937 -73.09710484 44.93182 -75.9375 42.9375 C-78.43209094 39.38459775 -79.07615714 37.34095695 -79 33 C-69.40307573 16.52565459 -49.90309568 2.71204793 -31.75 -2.375 C-21.47653808 -4.21700703 -9.63697265 -4.26501155 0 0 Z " fill="#FDFEFD" transform="translate(373,89)"/>
<path d="M0 0 C6.61722437 6.61722437 6.41562402 21.4220201 6.4375 30.1875 C6.23075585 47.5421098 1.94287851 64.56918879 -8 79 C-8.46535156 79.68835938 -8.93070312 80.37671875 -9.41015625 81.0859375 C-16.71775693 91.14089701 -26.34341801 100.08003749 -35.80859375 108.09375 C-38.9653396 110.839725 -42.00863158 113.70304948 -45.0625 116.5625 C-45.70614502 117.16497559 -46.34979004 117.76745117 -47.01293945 118.38818359 C-48.3419651 119.63311029 -49.67065514 120.87839536 -50.99902344 122.12402344 C-60.61492188 131.13922154 -70.26827589 140.10993852 -80 149 C-91.05125332 159.11197017 -102.07990057 169.24629996 -113 179.5 C-121.65374442 187.62464039 -130.31836276 195.73519207 -139.1875 203.625 C-142.56299789 206.64117069 -145.77181444 209.76462954 -148.9375 213 C-153.13769219 217.25934983 -157.59914085 220.98252993 -162.26953125 224.7109375 C-165.96107287 227.8057063 -169.28502875 231.20104133 -172.6484375 234.64453125 C-175.35501257 237.3556023 -178.18683726 239.86264576 -181.11328125 242.33203125 C-183.51368201 244.45412468 -185.73624419 246.7328855 -188 249 C-189.92834272 250.80333291 -191.86228224 252.59581536 -193.8125 254.375 C-194.34383545 254.86121826 -194.8751709 255.34743652 -195.42260742 255.84838867 C-198.1890448 258.37298845 -200.97532291 260.86730132 -203.8125 263.3125 C-208.54873566 267.40924392 -213.08293674 271.72667283 -217.6340332 276.02661133 C-220.98556981 279.17943506 -224.39970779 282.13020187 -228 285 C-228.598125 285.763125 -229.19625 286.52625 -229.8125 287.3125 C-232.82189512 291.00975686 -236.35828089 293.94147434 -240 297 C-240.95390625 297.80695313 -241.9078125 298.61390625 -242.890625 299.4453125 C-250.37307552 305.6576012 -258.11548106 310.91697809 -267 314.875 C-267.60312012 315.14876465 -268.20624023 315.4225293 -268.82763672 315.70458984 C-279.4903038 320.21991723 -290.38282453 321.53276534 -301.875 321.4375 C-303.0928418 321.43427734 -304.31068359 321.43105469 -305.56542969 321.42773438 C-314.58573756 321.28818307 -322.55326677 320.21780314 -331 317 C-327.31068593 315.77022864 -325.91003866 316.42471741 -322.1875 317.4375 C-299.36591125 322.52992063 -275.45700821 318.23253981 -255.640625 305.86328125 C-248.10591922 300.54663235 -241.10130646 294.36967167 -234.71899414 287.7199707 C-232.97230334 285.9722876 -231.15837913 284.36084345 -229.28515625 282.75 C-225.17822711 279.18022843 -221.20365036 275.48789864 -217.25 271.75 C-211.55893096 266.39125616 -205.83096552 261.07970121 -200.05859375 255.80859375 C-196.51537135 252.56443661 -193.00836194 249.28175903 -189.5 246 C-184.01464084 240.87001271 -178.49977997 235.77489922 -172.95703125 230.70703125 C-168.165567 226.32512121 -163.40117589 221.91380545 -158.63232422 217.50732422 C-157.02804639 216.02589866 -155.42245634 214.54591008 -153.81640625 213.06640625 C-148.00420142 207.71047999 -142.21092348 202.33522536 -136.4375 196.9375 C-130.97254144 191.82889126 -125.47800817 186.75499275 -119.95703125 181.70703125 C-116.81666841 178.83509341 -113.68861186 175.94993466 -110.5625 173.0625 C-110.02222168 172.56347168 -109.48194336 172.06444336 -108.92529297 171.55029297 C-107.83051694 170.53895328 -106.7357905 169.52755992 -105.64111328 168.51611328 C-103.46909558 166.50953341 -101.29623927 164.50386308 -99.12329102 162.49829102 C-98.03906892 161.49755842 -96.95492206 160.49674431 -95.87084961 159.49584961 C-93.18851745 157.01938674 -90.50534524 154.54384728 -87.8203125 152.0703125 C-82.00699959 146.71287587 -76.21226679 141.33648126 -70.4375 135.9375 C-64.97254144 130.82889126 -59.47800817 125.75499275 -53.95703125 120.70703125 C-50.26961149 117.33479662 -46.59828747 113.94517725 -42.9296875 110.55249023 C-40.1850407 108.01459263 -37.4359406 105.4819641 -34.67578125 102.9609375 C-31.43128212 99.99434697 -28.20963324 97.00424893 -25 94 C-24.49662109 93.53207031 -23.99324219 93.06414062 -23.47460938 92.58203125 C-14.42150419 84.11031814 -8.3452305 75.3525314 -3.25 64.125 C-2.96801758 63.51374268 -2.68603516 62.90248535 -2.39550781 62.27270508 C2.17982147 51.69396434 3.49342424 40.93451808 3.375 29.5 C3.39240234 27.81970703 3.39240234 27.81970703 3.41015625 26.10546875 C3.38548816 18.97639157 2.44986362 12.55905762 0.64306641 5.66210938 C0 3 0 3 0 0 Z " fill="#F3F3F7" transform="translate(437,114)"/>
<path d="M0 0 C4.00612919 2.50383074 7.02473403 5.4151928 9.5 9.4375 C10.6053767 15.10255557 10.81172281 19.16617795 8 24.25 C4.6795167 29.00156484 0.62660843 31.33558319 -5.046875 32.375 C-10.53102283 32.71510219 -13.68544571 31.06997132 -18 28 C-22.44216756 23.32403414 -23.45614287 19.59925801 -23.3359375 13.15625 C-22.58335959 8.3257499 -19.99860361 4.61749516 -16.23828125 1.57421875 C-10.98621535 -1.52588506 -5.78005107 -1.89314964 0 0 Z " fill="#1E1766" transform="translate(197,218)"/>
<path d="M0 0 C4.36859523 2.22551078 7.05621805 4.46450877 9 9 C9.57677114 12.87260623 9.19115569 14.63239291 7.375 18.125 C4.07880753 22.11512773 1.1911179 24.63481368 -4 25.5 C-8.81238193 24.69793635 -11.78457295 22.45851246 -14.875 18.75 C-16.37988878 15.07138298 -16.92618982 11.85790879 -16 8 C-11.90872108 1.48147915 -7.82362951 -1.04897826 0 0 Z " fill="#201967" transform="translate(252,290)"/>
<path d="M0 0 C3.0625 1.9375 3.0625 1.9375 5 5 C5.90731802 9.4798827 5.53516889 12.8831258 3.5625 17 C-0.08592888 19.84755425 -3.40440413 20.56451091 -8 20 C-11.12766096 18.3453246 -13.39710419 16.20579162 -15 13 C-15.39447548 8.81855989 -15.45035186 6.69053952 -13.125 3.125 C-9.25066951 -0.74933049 -5.26519502 -0.77162341 0 0 Z " fill="#1D1665" transform="translate(187,314)"/>
<path d="M0 0 C2.4375 1.5 2.4375 1.5 4 4 C4.67831686 7.15564802 4.7394557 9.85171135 4 13 C1.72167306 16.38628046 -1.06627293 17.80944345 -5.0625 18.625 C-8.97813037 17.79188716 -10.47422371 16.03093154 -13 13 C-14.44430855 10.11138291 -14.37688506 8.20352299 -14 5 C-9.36185236 -0.49254326 -7.03521749 -1.57685909 0 0 Z " fill="#201967" transform="translate(192,272)"/>
<path d="M0 0 C6.61722437 6.61722437 6.41562402 21.4220201 6.4375 30.1875 C6.23075585 47.5421098 1.94287851 64.56918879 -8 79 C-8.46535156 79.68835938 -8.93070312 80.37671875 -9.41015625 81.0859375 C-15.30504712 89.19706611 -22.84219457 96.02165738 -30 103 C-30.66 102.67 -31.32 102.34 -32 102 C-31.2265625 101.16597656 -30.453125 100.33195312 -29.65625 99.47265625 C-26.94027548 96.54120451 -24.23425064 93.60071946 -21.53027344 90.65820312 C-20.23931395 89.25932042 -18.93729457 87.87065627 -17.6328125 86.484375 C-3.08988135 70.75311095 3.59459416 50.70303635 3.375 29.5 C3.38660156 28.37980469 3.39820313 27.25960937 3.41015625 26.10546875 C3.38548816 18.97639157 2.44986362 12.55905762 0.64306641 5.66210938 C0 3 0 3 0 0 Z " fill="#E8E7EF" transform="translate(437,114)"/>
<path d="M0 0 C0.99 0.495 0.99 0.495 2 1 C-4.43193356 8.07512691 -12.14465234 12.86222304 -20.8125 16.75 C-21.42714111 17.03149902 -22.04178223 17.31299805 -22.67504883 17.60302734 C-33.38632146 22.2023883 -44.3056094 23.53340542 -55.875 23.4375 C-57.0928418 23.43427734 -58.31068359 23.43105469 -59.56542969 23.42773438 C-68.58573756 23.28818307 -76.55326677 22.21780314 -85 19 C-81.31068593 17.77022864 -79.91003866 18.42471741 -76.1875 19.4375 C-53.0306633 24.60472802 -29.33571227 20.03917484 -9.26953125 7.55859375 C-5.93873905 5.27118224 -2.98281919 2.72344361 0 0 Z " fill="#EFEFF4" transform="translate(191,412)"/>
<path d="M0 0 C2.9375 1 2.9375 1 4.875 2.6875 C6.33365475 5.86221916 5.94221852 7.69878201 4.9375 11 C1.46826119 13.31282587 0.01544425 13.42478586 -4.0625 13 C-5.9375 11.875 -5.9375 11.875 -7.0625 10 C-7.60650387 6.34740261 -7.50024093 4.6566114 -5.4375 1.5625 C-3.0625 0 -3.0625 0 0 0 Z " fill="#221C69" transform="translate(228.0625,270)"/>
<path d="M0 0 C3.0625 0.1875 3.0625 0.1875 5.0625 2.1875 C4.73278521 5.48464793 4.4398161 6.8101839 2.0625 9.1875 C-2.49305556 8.63194444 -2.49305556 8.63194444 -3.9375 7.1875 C-4.0625 4.1875 -4.0625 4.1875 -3.9375 1.1875 C-2.9375 0.1875 -2.9375 0.1875 0 0 Z " fill="#26206B" transform="translate(217.9375,302.8125)"/>
<path d="M0 0 C2.625 0.375 2.625 0.375 5 1 C5.625 3.875 5.625 3.875 6 7 C5.34 7.66 4.68 8.32 4 9 C0.70285207 8.67028521 -0.6226839 8.3773161 -3 6 C-2.63318342 3.06546739 -2.13562754 2.13562754 0 0 Z " fill="#29236E" transform="translate(153,268)"/>
<path d="M0 0 C0.66 0.33 1.32 0.66 2 1 C-4.44736842 7.63157895 -4.44736842 7.63157895 -8 10 C-10.15234375 9.6015625 -10.15234375 9.6015625 -12 9 C-11.38511719 8.60167969 -10.77023438 8.20335937 -10.13671875 7.79296875 C-9.32847656 7.26316406 -8.52023438 6.73335938 -7.6875 6.1875 C-6.88699219 5.66542969 -6.08648437 5.14335937 -5.26171875 4.60546875 C-3.2762598 3.19610151 -1.6508148 1.77903343 0 0 Z " fill="#E9E8F0" transform="translate(191,412)"/>
<path d="M0 0 C2.0625 0.4375 2.0625 0.4375 4 1 C4.33 2.32 4.66 3.64 5 5 C3.35 5.33 1.7 5.66 0 6 C-0.38218767 4.34385343 -0.71395102 2.67542976 -1 1 C-0.67 0.67 -0.34 0.34 0 0 Z " fill="#27206C" transform="translate(208,348)"/>
</svg>
